<?xml version="1.0" encoding="utf-8"?>
<!-- Generator: Adobe Illustrator 28.0.0, SVG Export Plug-In . SVG Version: 6.00 Build 0)  -->
<svg version="1.1" id="Calque_1" xmlns="http://www.w3.org/2000/svg" xmlns:xlink="http://www.w3.org/1999/xlink" x="0px" y="0px"
	 viewBox="0 0 437 340" style="enable-background:new 0 0 437 340;" xml:space="preserve">
<style type="text/css">
	.st0{fill:#030104;}
</style>
<path class="st0" d="M375.6,166.8c0,88.4-71.6,160-160,160s-160-71.6-160-160s71.6-160,160-160S375.6,78.4,375.6,166.8z M254.2,91.2
	c0-12.6-10.9-22.8-24.5-22.8c-13.5,0-24.5,10.2-24.5,22.8s10.9,22.8,24.5,22.8C243.3,114.1,254.2,103.9,254.2,91.2z M193.3,154.8
	c6.9,5.3,1.8,22.8-0.7,31.5c-3.1,11-6.1,22-9.1,33.1c-2,7.4-3,14-2.9,19.7c0.2,22.9,24.2,28,42.3,24.7c7.5-1.4,16.7-5.5,24.7-8.5
	c0.8-0.3,1.4-0.9,1.6-1.8l2.1-8.7c0.2-0.9-0.1-1.2-0.9-0.8c-6.2,2.5-22.9,6.4-27-1.4c-3.7-7.1,0.1-19.9,2.2-27.5
	c3.5-12.4,6.9-24.9,10.4-37.3c1.2-4.5,1.9-9.5,2-15c0-5.4-0.8-9.8-2.5-13.4c-6.9-14.5-26.8-16.6-40.4-13.1c-7.6,2-15.8,4.8-24.5,8.5
	c-0.3,0.1-0.4,0.3-0.5,0.6l-2.4,10.1c-0.1,0.5,0.1,0.7,0.6,0.5C175,153.3,186.9,149.9,193.3,154.8z"/>
</svg>
